# xmcd CD database file
#
# Track frame offsets:
#	150
#	19912
#	47927
#	66028
#	88578
#	102898
#	116243
#	139389
#	162295
#	182667
#
# Disc length: 2681 seconds
#
# Revision: 0
# Processed by: cddbd v1.5.2PL0 Copyright (c) Steve Scherf et al.
# Submitted via: CDex 1.50
#
DISCID=8b0a770a
DTITLE=New Cool Collective - Electric Monkey Sessions 2
DYEAR=2018
DGENRE=Jazz
TTITLE0=La Rana
TTITLE1=Skint
TTITLE2=Skalypso
TTITLE3=Villechaize
TTITLE4=Max
TTITLE5=Machu Picchu
TTITLE6=Kaspa
TTITLE7=Linakwa
TTITLE8=Acapulco Gold
TTITLE9=Ar Ping Talk
EXTD=YEAR: 2018
EXTT0=
EXTT1=
EXTT2=
EXTT3=
EXTT4=
EXTT5=
EXTT6=
EXTT7=
EXTT8=
EXTT9=
PLAYORDER=
